# xmcd
#
# Track frame offsets: 
#        150
#        12100
#        33105
#        47867
#        62457
#        77490
#        90675
#        107890
#        112892
#        132857
#        146160
#        159572
#        174537
#        191730
#        209185
#        227145
#
# Disc length: 3308 seconds
#
# Revision: 0
# Processed by: cddbd v1.4PL0 Copyright (c) Steve Scherf et al.
# Submitted via: ExactAudioCopy v0.95a2
#
DISCID=d80cea10
DTITLE=Blueass Blues Band - Breakin' Through
DYEAR=1900
DGENRE=
TTITLE0=38 Special Blues
TTITLE1=Parchman Farm
TTITLE2=Buffalo Jump
TTITLE3=It's Allright
TTITLE4=All I've Got Left Is The Blues
TTITLE5=Do The Boogie
TTITLE6=Wait On Time
TTITLE7=Intermission
TTITLE8=Blues By The Hand
TTITLE9=Once I Had A Woman
TTITLE10=Barefootin'
TTITLE11=Empty Arms
TTITLE12=T-Bone Shuffle
TTITLE13=Down The Road
TTITLE14=Talk To Me Baby
TTITLE15=Just One More (When I Woke Up This Morning Blues)
EXTD=
EXTT0=
EXTT1=
EXTT2=
EXTT3=
EXTT4=
EXTT5=
EXTT6=
EXTT7=
EXTT8=
EXTT9=
EXTT10=
EXTT11=
EXTT12=
EXTT13=
EXTT14=
EXTT15=
PLAYORDER=
